# xmcd
#
# Track frame offsets: 
#        150
#        15582
#        27214
#        37699
#        53129
#        69345
#        85779
#        111926
#        121907
#        131653
#        152931
#        169880
#        177120
#        198483
#
# Disc length: 2870 seconds
#
# Revision: 0
# Processed by: cddbd v1.5.2PL0 Copyright (c) Steve Scherf et al.
# Submitted via: ExactAudioCopy v0.95a5
#
DISCID=af0b340e
DTITLE=Trampled By Turtles - Trouble
DYEAR=2007
DGENRE=Bluegrass
TTITLE0=Valley
TTITLE1=Still In Love With You
TTITLE2=Arming of Infants
TTITLE3=Salvation
TTITLE4=Ceiling Slide
TTITLE5=Rich/Poor
TTITLE6=Like an Empty House
TTITLE7=Tap the Kitchen Floor
TTITLE8=Never Again
TTITLE9=Trouble
TTITLE10=Stranger
TTITLE11=Spoiler
TTITLE12=Who's Calling
TTITLE13=Last Page
EXTD=
EXTT0=
EXTT1=
EXTT2=
EXTT3=
EXTT4=
EXTT5=
EXTT6=
EXTT7=
EXTT8=
EXTT9=
EXTT10=
EXTT11=
EXTT12=
EXTT13=
PLAYORDER=
